<svg xmlns="http://www.w3.org/2000/svg" viewBox="0 0 640 180" role="img" aria-labelledby="title desc">
<title id="title">Ardente Family Treasures</title>
<desc id="desc">A glowing treasure chest beneath ocean waves.</desc>
<defs>
  <linearGradient id="sea" x1="0" y1="0" x2="1" y2="1">
    <stop stop-color="#22d3ee"/><stop offset=".52" stop-color="#0b79b7"/><stop offset="1" stop-color="#5633a5"/>
  </linearGradient>
  <linearGradient id="gold" x1="0" y1="0" x2="0" y2="1">
    <stop stop-color="#fff2a6"/><stop offset=".45" stop-color="#ffc83d"/><stop offset="1" stop-color="#c98511"/>
  </linearGradient>
  <filter id="glow"><feGaussianBlur stdDeviation="7" result="b"/><feMerge><feMergeNode in="b"/><feMergeNode in="SourceGraphic"/></feMerge></filter>
</defs>
<path d="M12 52C67 21 121 78 179 46s111 24 168-4 117 25 177-1 83 3 104 17v112H12Z" fill="url(#sea)"/>
<g transform="translate(38 28)" stroke="#7a430e" stroke-width="6" stroke-linejoin="round">
  <path d="M18 50Q70 8 122 50v34H18Z" fill="#b76f24"/>
  <path d="M10 78h120v66H10Z" fill="#8c4d19"/>
  <path d="M10 88h120" fill="none"/>
  <path d="M62 75h18v45H62Z" fill="url(#gold)"/>
  <circle cx="71" cy="101" r="5" fill="#fff4a8" stroke="none"/>
  <path d="M20 50h100" fill="none"/>
</g>
<g fill="#fff7b8" filter="url(#glow)">
  <path d="m144 31 4 10 10 4-10 4-4 10-4-10-10-4 10-4Z"/>
  <path d="m178 51 3 7 7 3-7 3-3 7-3-7-7-3 7-3Z"/>
</g>
<text x="205" y="79" font-family="Georgia,serif" font-size="46" font-weight="700" fill="#fff">Ardente Family</text>
<text x="205" y="128" font-family="Georgia,serif" font-size="46" font-weight="700" fill="#ffd85b">Treasures</text>
<text x="207" y="154" font-family="Arial,sans-serif" font-size="17" font-weight="700" letter-spacing="2.5" fill="#bdf8ff">HOME OF CORA'S OCEAN ADVENTURES</text>
</svg>