<svg xmlns="http://www.w3.org/2000/svg" viewBox="0 0 850 1100">
<rect width="850" height="1100" fill="white"/>
<g fill="none" stroke="black" stroke-width="6" stroke-linecap="round" stroke-linejoin="round">
<text x="425" y="70" text-anchor="middle" font-family="Arial" font-size="38" fill="black" stroke="none">Color Cora's Coral Reef!</text>
<path d="M0 880 Q120 820 240 880 T480 880 T720 880 T960 880"/>
<path d="M110 880c-30-110 35-170 20-260 85 75 40 170 70 260"/>
<path d="M230 890c20-120-45-170-5-250 80 60 55 170 80 250"/>
<path d="M590 890c-25-125 45-175 25-265 90 75 35 185 70 265"/>
<ellipse cx="420" cy="480" rx="155" ry="105"/>
<path d="M270 480 180 415v130Z"/>
<circle cx="470" cy="450" r="12"/>
<path d="M525 500q-65 55-130 0"/>
<path d="M390 390q30-55 65 0"/>
<path d="M380 585q35 45 70 0"/>
<circle cx="105" cy="300" r="32"/><circle cx="155" cy="230" r="18"/><circle cx="700" cy="270" r="28"/>
<path d="M80 980q45-80 90 0M670 990q45-90 90 0"/>
</g></svg>